<?xml version="1.0" encoding="UTF-8"?>
<svg id="_Слой_1" xmlns="http://www.w3.org/2000/svg" version="1.1" viewBox="0 0 27.52 27.52">
  <!-- Generator: Adobe Illustrator 29.8.1, SVG Export Plug-In . SVG Version: 2.1.1 Build 2)  -->
  <defs>
    <style>
      .st0 {
        fill: #fff;
      }
    </style>
  </defs>
  <path class="st0" d="M1.92,12.32s11.94-4.9,16.08-6.63c1.59-.69,6.97-2.9,6.97-2.9,0,0,2.48-.97,2.28,1.38-.07.97-.62,4.35-1.17,8.01-.83,5.18-1.73,10.84-1.73,10.84,0,0-.14,1.59-1.31,1.86-1.17.28-3.11-.97-3.45-1.24-.28-.21-5.18-3.31-6.97-4.83-.48-.41-1.04-1.24.07-2.21,2.48-2.28,5.45-5.11,7.25-6.9.83-.83,1.66-2.76-1.79-.41-4.9,3.38-9.73,6.56-9.73,6.56,0,0-1.1.69-3.17.07-2.07-.62-4.49-1.45-4.49-1.45,0,0-1.66-1.04,1.17-2.14h-.01Z"/>
</svg>