<?xml version="1.0" encoding="UTF-8"?>
<svg id="_Слой_1" xmlns="http://www.w3.org/2000/svg" version="1.1" viewBox="0 0 27.52 27.52">
  <!-- Generator: Adobe Illustrator 29.8.1, SVG Export Plug-In . SVG Version: 2.1.1 Build 2)  -->
  <defs>
    <style>
      .st0 {
        fill: #fff;
      }
    </style>
  </defs>
  <path class="st0" d="M24.7,11.32c-.21.02-.42.03-.63.03-2.3,0-4.45-1.16-5.71-3.09v10.51c0,4.29-3.48,7.77-7.77,7.77s-7.77-3.48-7.77-7.77,3.48-7.77,7.77-7.77h0c.16,0,.32.01.48.02v3.83c-.16-.02-.32-.05-.48-.05-2.19,0-3.97,1.78-3.97,3.97s1.78,3.97,3.97,3.97,4.13-1.73,4.13-3.92l.04-17.86h3.66c.35,3.29,2.99,5.85,6.29,6.09v4.26"/>
</svg>